<?xml version="1.0" standalone="no"?>
<!DOCTYPE svg PUBLIC "-//W3C//DTD SVG 20010904//EN"
 "http://www.w3.org/TR/2001/REC-SVG-20010904/DTD/svg10.dtd">
<svg version="1.0" xmlns="http://www.w3.org/2000/svg"
 width="200.000000pt" height="200.000000pt" viewBox="0 0 200.000000 200.000000"
 preserveAspectRatio="xMidYMid meet">
<metadata>
Created by potrace 1.16, written by Peter Selinger 2001-2019
</metadata>
<g transform="translate(0.000000,200.000000) scale(0.100000,-0.100000)"
fill="#000000" stroke="none">
<path d="M290 1931 c-86 -27 -164 -93 -202 -170 l-23 -46 0 -715 0 -715 25
-50 c33 -68 99 -129 166 -154 53 -20 72 -21 744 -21 680 0 690 0 747 21 76 29
143 96 172 173 21 58 21 61 19 759 l-3 702 -23 47 c-30 60 -90 120 -150 150
l-47 23 -700 2 c-385 1 -711 -2 -725 -6z m1443 -90 c26 -13 61 -40 78 -60 60
-73 60 -71 57 -807 l-3 -669 -27 -46 c-15 -26 -41 -59 -58 -73 -66 -55 -76
-56 -780 -56 -734 0 -719 -1 -795 74 -73 73 -70 42 -70 801 l0 680 23 47 c23
45 74 95 117 113 48 20 155 23 765 21 l645 -1 48 -24z"/>
<path d="M910 1739 c-131 -38 -233 -133 -273 -253 -15 -43 -17 -106 -17 -476
0 -235 3 -429 6 -432 9 -10 44 4 37 15 -3 6 -1 7 5 3 18 -11 71 25 95 64 21
34 22 48 28 405 4 204 8 377 9 385 2 8 24 35 49 60 72 72 160 86 253 39 39
-20 97 -95 99 -126 0 -16 1 -16 9 2 13 31 11 97 -5 151 -36 120 -176 198 -295
163z"/>
<path d="M1182 1665 c19 -27 40 -65 47 -84 17 -53 13 -140 -9 -190 -11 -24
-20 -52 -20 -62 0 -11 -9 -39 -21 -62 l-21 -42 40 39 c106 102 115 280 19 386
-53 58 -70 66 -35 15z"/>
<path d="M1274 1599 c34 -71 40 -124 26 -195 -20 -95 -86 -179 -170 -218 -47
-21 -210 -33 -210 -15 0 5 -6 9 -12 9 -7 0 -30 16 -50 35 l-38 34 0 -110 c0
-90 3 -109 15 -109 8 0 15 -5 15 -10 0 -6 3 -9 8 -8 4 1 21 -4 37 -11 39 -16
171 -16 210 0 17 7 36 13 43 15 8 1 31 14 52 28 203 134 239 417 73 585 l-24
24 25 -54z"/>
<path d="M903 930 c-29 -12 -56 -55 -49 -78 4 -10 15 -28 27 -40 19 -21 28
-22 210 -22 225 0 248 7 249 73 0 15 -9 38 -21 50 -19 21 -28 22 -207 24 -103
1 -197 -2 -209 -7z"/>
<path d="M1044 719 c-17 -19 -19 -39 -19 -226 0 -203 0 -205 24 -224 31 -25
75 -24 101 3 19 20 20 34 20 225 0 190 -1 204 -20 223 -27 27 -81 26 -106 -1z"/>
</g>
</svg>
